<?xml version="1.0" encoding="UTF-8"?>
<svg xmlns="http://www.w3.org/2000/svg" xmlns:xlink="http://www.w3.org/1999/xlink" viewBox="0 0 90 90" width="90px" height="90px">
<g id="surface46527097">
<path style=" stroke:none;fill-rule:nonzero;fill:rgb(20.392157%,59.607846%,85.882354%);fill-opacity:1;" d="M 45 9 C 25.117188 9 9 25.117188 9 45 C 9 64.882812 25.117188 81 45 81 C 64.882812 81 81 64.882812 81 45 C 81 25.117188 64.882812 9 45 9 Z M 64.082031 56.902344 L 58.480469 56.980469 C 58.480469 56.980469 57.269531 57.214844 55.6875 56.125 C 53.59375 54.683594 51.613281 50.9375 50.074219 51.421875 C 48.511719 51.921875 48.558594 55.292969 48.558594 55.292969 C 48.558594 55.292969 48.570312 55.886719 48.214844 56.273438 C 47.824219 56.691406 47.066406 56.648438 47.066406 56.648438 L 44.554688 56.648438 C 44.554688 56.648438 39.019531 57.109375 34.136719 52.019531 C 28.820312 46.472656 24.121094 35.527344 24.121094 35.527344 C 24.121094 35.527344 23.847656 34.835938 24.140625 34.480469 C 24.472656 34.09375 25.371094 34.078125 25.371094 34.078125 L 31.371094 34.050781 C 31.371094 34.050781 31.933594 34.148438 32.34375 34.449219 C 32.675781 34.695312 32.863281 35.15625 32.863281 35.15625 C 32.863281 35.15625 33.835938 37.613281 35.121094 39.839844 C 37.628906 44.179688 38.792969 45.128906 39.644531 44.664062 C 40.886719 43.984375 40.515625 38.53125 40.515625 38.53125 C 40.515625 38.53125 40.539062 36.550781 39.890625 35.671875 C 39.386719 34.984375 38.4375 34.777344 38.023438 34.726562 C 37.6875 34.683594 38.238281 33.898438 38.957031 33.542969 C 40.039062 33.015625 41.945312 32.984375 44.199219 33.007812 C 45.953125 33.023438 46.460938 33.132812 47.144531 33.300781 C 49.214844 33.800781 48.511719 35.734375 48.511719 40.367188 C 48.511719 41.851562 48.246094 43.941406 49.3125 44.628906 C 49.777344 44.925781 50.902344 44.671875 53.707031 39.890625 C 55.039062 37.621094 56.039062 34.960938 56.039062 34.960938 C 56.039062 34.960938 56.257812 34.484375 56.597656 34.28125 C 56.945312 34.070312 57.414062 34.136719 57.414062 34.136719 L 63.730469 34.097656 C 63.730469 34.097656 65.625 33.871094 65.933594 34.730469 C 66.257812 35.632812 65.226562 37.734375 62.644531 41.175781 C 58.410156 46.828125 57.9375 46.300781 61.457031 49.570312 C 64.816406 52.695312 65.511719 54.214844 65.628906 54.40625 C 67.015625 56.71875 64.082031 56.902344 64.082031 56.902344 Z M 64.082031 56.902344 "/>
</g>
</svg>
